<?xml version="1.0" encoding="utf-8"?>
<!-- Generator: Adobe Illustrator 24.0.1, SVG Export Plug-In . SVG Version: 6.00 Build 0)  -->
<svg version="1.0" id="Layer_1" xmlns="http://www.w3.org/2000/svg" xmlns:xlink="http://www.w3.org/1999/xlink" x="0px" y="0px"
	 viewBox="0 0 184.76 38.93" style="enable-background:new 0 0 184.76 38.93;" xml:space="preserve">
<style type="text/css">
	.st0{fill:#FFFFFF;}
</style>
<g>
	<path class="st0" d="M11.16,2.65V2.49c0-0.4,0.36-0.64,0.92-0.64h7.52c0.56,0,0.92,0.24,0.92,0.64v0.16c0,1-1.68,1.36-1.68,3.04
		L18.8,18.37c-0.04,9-3.72,12.24-9.52,12.28c-7.2,0.04-9.28-4.28-9.28-7c0-1.76,1.08-2.96,2.76-2.96c4.68,0,2.24,7.52,6.84,7.52
		c1.96,0,3.12-2.44,3.12-6.32V5.69C12.72,4.01,11.16,3.65,11.16,2.65z"/>
	<path class="st0" d="M22.04,20.53c0-5.8,4.76-9.88,10.36-9.88c6.16,0,10.76,4.4,10.76,10.08c0,5.68-4.32,9.92-10.16,9.92
		C26.56,30.65,22.04,26.09,22.04,20.53z M37.16,23.09c0-4.36-2.16-10.68-5.56-10.68c-2.4,0-3.68,2.04-3.68,5.84
		c0,4.08,2.16,10.64,5.8,10.64C35.88,28.89,37.16,26.77,37.16,23.09z"/>
	<path class="st0" d="M45.28,25.97c0-1.52,1.04-2.2,2.4-2.2c3.52,0,2.16,5.28,6.16,5.28c1.64,0,2.92-0.84,2.92-2.64
		c0-5.32-11.12-2-11.12-9.88c0-3.4,3.32-5.88,8.12-5.88c5.04,0,8.24,2.32,8.24,4.8c0,1.16-1,2.08-2.28,2.08
		c-3.32,0-2.16-5.24-5.64-5.24c-1.6,0-2.6,1.24-2.6,2.68c0,5.48,10.92,2.28,10.92,9.92c0,3.24-3.2,5.72-8.56,5.72
		C48.68,30.61,45.28,28.45,45.28,25.97z"/>
	<path class="st0" d="M82.24,24.61c-0.24,2.32-2.96,6.04-8.12,6.04c-5.56,0-9.68-4-9.68-10.16c0-5.8,4.44-9.84,9.68-9.84
		s7.56,3.04,7.56,5.68c0,1.36-0.68,2.16-1.76,2.64l-8.88,4.04c1.04,2.2,2.88,3.48,5.28,3.48c2.12,0,3.8-1.08,4.56-2.32
		C81.36,23.57,82.28,23.77,82.24,24.61z M68.44,7.81c-0.28-0.48-0.12-1.08,0.24-1.4l6.96-5.28c0.84-0.68,1.6-0.44,2.04,0.44
		l1.08,2.2c0.44,0.8,0.16,1.64-0.8,1.88l-8.08,2.6C69.32,8.41,68.76,8.29,68.44,7.81z M70,17.73c0,1.24,0.12,2.4,0.4,3.44l5.16-2.6
		c0.72-0.36,1.04-1.04,1.04-1.88c0-1.44-1.04-4.28-3.2-4.28C71.28,12.41,70,14.69,70,17.73z"/>
	<path class="st0" d="M105.44,20.33c0,6.2-4.32,10.32-9.32,10.32c-1.96,0-3.48-0.56-4.68-1.56v5.96c0,1.72,1.68,2.04,1.68,3.04v0.16
		c0,0.44-0.36,0.68-0.92,0.68h-7.24c-0.56,0-0.92-0.24-0.92-0.68v-0.16c0-1,1.56-1.32,1.56-3.04v-18c0-1.64-1.84-1.76-1.84-2.8v-0.2
		c0-0.4,0.32-0.72,0.8-0.96l4.48-2.2c1.12-0.56,1.52-0.04,1.52,0.72l-0.04,1.68c1.08-1.68,3.08-2.64,5.56-2.64
		C100.72,10.65,105.44,14.01,105.44,20.33z M99.56,22.73c0-5.04-1.72-10.36-4.88-10.36c-1.68,0-3,1.32-3.24,3.24v7.64
		c0,3.16,1.96,5.68,4.08,5.68C98.08,28.93,99.56,26.73,99.56,22.73z"/>
	<path class="st0" d="M129.64,29.41v0.16c0,0.44-0.36,0.68-0.88,0.68h-6.96c-0.52,0-0.88-0.24-0.88-0.68v-0.16
		c0-1,1.52-1.32,1.44-3.04l-0.4-7.68c-0.2-4-1.36-5.76-3.48-5.76c-2.16,0-3.4,1.8-3.4,4.4v9.08c0,1.68,1.72,2,1.72,3v0.16
		c0,0.4-0.4,0.68-0.96,0.68h-7.4c-0.56,0-0.92-0.28-0.92-0.68v-0.16c0-1,1.68-1.32,1.68-3V6.49c0-1.76-1.8-1.92-1.8-2.88V3.49
		c0-0.44,0.32-0.76,0.8-1l5.28-2.32c0.88-0.4,1.44-0.08,1.44,0.72l-0.04,12c1.2-1.44,3-2.24,5.24-2.24c3.64,0,7.16,2.16,7.56,8.2
		l0.52,7.48C128.36,28.09,129.64,28.41,129.64,29.41z"/>
	<path class="st0" d="M131.64,29.57v-0.16c0-1,1.52-1.32,1.52-3.04v-9.04c0-1.76-1.52-2.2-1.52-3.08v-0.12
		c0-0.36,0.32-0.56,0.84-0.84l5-2.48c1-0.48,1.64,0.08,1.64,0.8v14.76c0,1.72,1.68,2.04,1.68,3.04v0.16c0,0.4-0.36,0.68-0.92,0.68
		h-7.36C132,30.25,131.64,29.97,131.64,29.57z M132.2,4.69c0-2,1.6-3.48,3.96-3.48c2.36,0,3.88,1.48,3.88,3.48
		c0,2.04-1.52,3.52-3.88,3.52C133.8,8.21,132.2,6.73,132.2,4.69z"/>
	<path class="st0" d="M165.27,29.45v0.16c0,0.4-0.36,0.68-0.92,0.68h-6.92c-0.56,0-0.92-0.28-0.92-0.68v-0.16
		c0-1,1.52-1.32,1.44-3.08l-0.4-7.4c-0.2-4.28-1.36-6.04-3.48-6.04c-2.16,0-3.4,1.8-3.4,4.4v9.08c0,1.72,1.72,2.04,1.72,3.04v0.16
		c0,0.4-0.36,0.68-0.92,0.68h-7.44c-0.56,0-0.92-0.28-0.92-0.68v-0.16c0-1,1.72-1.32,1.72-3.04v-9.32c0-1.8-1.96-1.96-1.96-2.96
		v-0.16c0-0.4,0.32-0.6,0.8-0.84l4.76-2.32c0.92-0.48,1.36,0.08,1.36,0.84v2.24c1.08-2.04,3.2-3.24,5.92-3.24
		c3.64,0,7.16,2.16,7.64,8.52l0.48,7.2C163.95,28.13,165.27,28.45,165.27,29.45z"/>
	<path class="st0" d="M184.76,24.61c-0.24,2.32-2.96,6.04-8.12,6.04c-5.56,0-9.68-4-9.68-10.16c0-5.8,4.44-9.84,9.68-9.84
		s7.56,3.04,7.56,5.68c0,1.36-0.68,2.16-1.76,2.64l-8.88,4.04c1.04,2.2,2.88,3.48,5.28,3.48c2.12,0,3.8-1.08,4.56-2.32
		C183.88,23.57,184.8,23.77,184.76,24.61z M172.52,17.73c0,1.24,0.12,2.4,0.4,3.44l5.16-2.6c0.72-0.36,1.04-1.04,1.04-1.88
		c0-1.44-1.04-4.28-3.2-4.28C173.8,12.41,172.52,14.69,172.52,17.73z"/>
</g>
<g>
</g>
<g>
</g>
<g>
</g>
<g>
</g>
<g>
</g>
<g>
</g>
</svg>
